<?xml version="1.0" standalone="no"?><!DOCTYPE svg PUBLIC "-//W3C//DTD SVG 1.1//EN" "http://www.w3.org/Graphics/SVG/1.1/DTD/svg11.dtd"><svg t="1558494499117" class="icon" style="" viewBox="0 0 1024 1024" version="1.1" xmlns="http://www.w3.org/2000/svg" p-id="982" xmlns:xlink="http://www.w3.org/1999/xlink" width="200" height="200"><defs><style type="text/css"></style></defs><path d="M939.46311111 443.05066667l-114.00533333-49.03822222 114.00533333-49.03822223c59.61955555-25.71377778 59.61955555-112.29866667 0-138.01244444L587.43466667 55.40977778C563.31377778 45.056 537.6 39.82222222 512 39.82222222s-51.31377778 5.23377778-75.43466667 15.58755556L84.53688889 206.96177778c-59.61955555 25.71377778-59.61955555 112.29866667 0 138.01244444l114.00533333 49.03822223-114.00533333 49.03822222c-59.61955555 25.71377778-59.61955555 112.29866667 0 138.01244444l114.00533333 49.03822222-114.00533333 49.03822222c-59.61955555 25.71377778-59.61955555 112.29866667 0 138.01244445l352.02844444 151.552c24.12088889 10.35377778 49.72088889 15.58755555 75.43466667 15.58755555s51.31377778-5.23377778 75.43466667-15.58755555l352.02844444-151.552c59.61955555-25.71377778 59.61955555-112.29866667 0-138.01244445l-114.00533333-49.03822222 114.00533333-49.03822222c59.61955555-25.71377778 59.61955555-112.41244445 0-138.01244444zM87.04 275.91111111c0-5.57511111 1.59288889-19.34222222 16.15644445-25.6l352.02844444-151.552c18.09066667-7.73688889 37.20533333-11.71911111 56.77511111-11.71911111s38.68444445 3.98222222 56.77511111 11.71911111L920.80355555 250.31111111c14.56355555 6.25777778 16.15644445 20.02488889 16.15644445 25.6 0 5.57511111-1.59288889 19.34222222-16.15644445 25.6L568.77511111 453.06311111c-18.09066667 7.73688889-37.20533333 11.71911111-56.77511111 11.71911111s-38.68444445-3.98222222-56.77511111-11.71911111L103.19644445 301.51111111c-14.56355555-6.25777778-16.15644445-20.02488889-16.15644445-25.6zM920.80355555 722.48888889c14.56355555 6.25777778 16.15644445 20.02488889 16.15644445 25.6 0 5.57511111-1.59288889 19.34222222-16.15644445 25.6L568.77511111 925.24088889c-18.09066667 7.73688889-37.20533333 11.71911111-56.77511111 11.71911111s-38.68444445-3.98222222-56.77511111-11.71911111L103.19644445 773.68888889c-14.56355555-6.25777778-16.15644445-20.02488889-16.15644445-25.6 0-5.57511111 1.59288889-19.34222222 16.15644445-25.6L258.27555555 655.70133333l178.28977778 76.8c24.12088889 10.35377778 49.72088889 15.58755555 75.43466667 15.58755556s51.31377778-5.23377778 75.43466667-15.58755556L765.72444445 655.70133333 920.80355555 722.48888889z m0-184.88888889L568.77511111 689.152C550.68444445 696.88888889 531.56977778 700.87111111 512 700.87111111s-38.68444445-3.98222222-56.77511111-11.71911111L103.19644445 537.6c-14.56355555-6.25777778-16.15644445-20.02488889-16.15644445-25.6s1.59288889-19.34222222 16.15644445-25.6L258.27555555 419.61244445l178.28977778 76.8c24.12088889 10.35377778 49.72088889 15.58755555 75.43466667 15.58755555s51.31377778-5.23377778 75.43466667-15.58755555L765.72444445 419.61244445l154.96533333 66.67377777c14.56355555 6.25777778 16.15644445 20.02488889 16.15644444 25.6s-1.47911111 19.456-16.04266667 25.71377778z" p-id="983"></path></svg>