<?xml version="1.0" standalone="no"?><!DOCTYPE svg PUBLIC "-//W3C//DTD SVG 1.1//EN" "http://www.w3.org/Graphics/SVG/1.1/DTD/svg11.dtd"><svg t="1558494533096" class="icon" style="" viewBox="0 0 1024 1024" version="1.1" xmlns="http://www.w3.org/2000/svg" p-id="1943" xmlns:xlink="http://www.w3.org/1999/xlink" width="200" height="200"><defs><style type="text/css"></style></defs><path d="M908.57643 141.297623c-230.270185 0-390.180036-127.927881-390.180036-134.324274-12.792788-12.792788-31.98197-6.396394-44.774758 6.396394-83.153122 102.342305-294.234126 127.927881-390.180036 127.92788-12.792788 0-19.189182 0-25.585576 6.396394-6.396394 6.396394-6.396394 12.792788-6.396394 25.585577v364.59446c0 159.909851 249.459367 479.729552 447.747582 479.729552 211.081003 0 447.747582-326.216096 447.747582-466.936764V173.279594c0-19.189182-19.189182-31.98197-38.378364-31.981971z m-31.98197 409.369219c0 108.738699-211.081003 402.972824-377.387248 402.972824-159.909851 0-383.783642-287.837731-383.783642-415.765612V205.261564c83.153122-6.396394 281.441337-25.585576 390.180036-127.927881 51.171152 38.378364 191.891821 121.531487 377.387248 127.927881l-6.396394 345.405278z m0 0" p-id="1944"></path><path d="M499.207212 595.4416c19.189182 0 38.378364-19.189182 38.378364-38.378364l12.792788-249.459368c0-19.189182 0-57.567546-57.567546-57.567546-51.171152 0-57.567546 31.98197-57.567546 57.567546L448.03606 557.063236c6.396394 19.189182 25.585576 38.378364 51.171152 38.378364z m0 44.774758c-31.98197 0-57.567546 25.585576-57.567546 57.567546s25.585576 57.567546 57.567546 57.567547 57.567546-25.585576 57.567546-57.567547c-6.396394-25.585576-31.98197-57.567546-57.567546-57.567546z m0 0" p-id="1945"></path></svg>