<?xml version="1.0" standalone="no"?><!DOCTYPE svg PUBLIC "-//W3C//DTD SVG 1.1//EN" "http://www.w3.org/Graphics/SVG/1.1/DTD/svg11.dtd"><svg t="1558494536289" class="icon" style="" viewBox="0 0 1024 1024" version="1.1" xmlns="http://www.w3.org/2000/svg" p-id="2064" xmlns:xlink="http://www.w3.org/1999/xlink" width="200" height="200"><defs><style type="text/css"></style></defs><path d="M674.0872059 173.21933431c0 12.94538272-4.2719763 24.07841185-12.81592887 33.26963359S641.98265679 220.59943506 629.03727406 220.59943506c-13.20429037 0-22.91332741-4.01306864-28.86820345-12.16865975s-12.03920592-21.35988148-17.99408198-39.61287112c-2.20071506-6.86105283-4.78979161-12.29811358-8.41449877-16.31118222-3.49525333-3.88361482-8.54395259-5.82542222-15.14609777-5.82542222-7.76722963 0-13.72210569 3.23634569-17.86462815 9.70903705s-7.63777581 15.01664395-10.61521381 25.37295011l-54.50006125 178.12846618H551.36497777l-13.07483654 41.42522469h-75.60103508l-78.44901924 256.57748542c-20.71261235 66.92762864-39.48341728 119.35642864-56.31241482 157.67476149-16.82899753 38.31833283-40.38959408 71.19960494-70.81124346 98.77327013-30.42164939 27.57366518-68.86943605 41.29577086-115.47281382 41.29577087-33.26963358 0-59.16039902-7.24941431-77.28393482-21.8776968-18.12353581-14.62828247-27.31475753-31.06891852-27.31475752-49.32190814 0-13.8515595 4.78979161-25.89076543 14.3693748-36.24707161 9.70903703-10.48576 22.13660445-15.53445925 37.41215606-15.53445927 18.25298963 0 30.42164939 4.78979161 36.11761777 14.62828248 5.69596839 9.83849086 9.32067555 22.52496592 10.74466766 38.18887901 1.81235358 20.45370469 10.61521383 30.68055703 26.14967308 30.68055703 15.40500543 0 27.96202667-8.54395259 37.92997135-25.37295012 9.96794469-17.08790518 19.93588939-43.10812445 30.29219557-78.1901116L355.88969876 401.83479309h-79.48464988l12.55702125-41.4252247h79.35519602l8.5439526-28.86820345c11.65084445-40.77795555 24.72568098-76.50721185 38.83614816-107.05831507s35.08198717-57.60695309 62.91456-81.42645728 62.52619852-35.59980247 104.33978468-35.59980246c15.66391309 0 30.5511032 2.71853037 44.66157038 7.89668345s25.37295013 12.68647506 33.78744888 22.52496592c8.54395259 9.70903703 12.68647506 21.61878914 12.68647505 35.34089481z m336.96831211 235.47651161c0 19.15916642-2.71853037 37.80051753-8.1555911 55.40623803h-43.23757828c5.95487605-20.71261235 9.0617679-39.48341728 9.0617679-56.31241481 0-3.88361482-1.16508445-8.15559111-3.49525335-12.55702124-2.33016889-4.40143013-6.73159902-6.73159902-13.33374418-6.73159901-4.78979161 0-8.93231408 1.4239921-12.16865975 4.01306864-3.3657995 2.71853037-11.52139061 10.87412148-24.85513482 24.85513482L830.98524444 505.65676247l37.92997136 119.48588247c4.14252247 12.94538272 8.41449876 23.69005037 12.55702123 32.36345679 4.14252247 8.54395259 9.45012939 12.81592889 15.7933669 12.81592888 10.61521383 0 19.93588939-8.15559111 28.35038816-24.3373195 8.41449876-16.31118222 14.36937482-30.68055703 17.99408197-43.23757828h40.5190479c-9.0617679 32.75181827-20.71261235 59.5487605-35.211441 80.26137286s-29.90383408 35.85871013-46.47392393 45.30883949c-16.57008987 9.45012939-32.23400297 14.23992098-46.86228543 14.23992099-23.81950419 0-41.81358617-8.15559111-54.24115358-24.59622715s-23.56059653-39.48341728-33.14017976-69.64615902l-17.34681285-56.57132247-98.77327011 104.98705383c-28.86820347 30.42164939-52.94661531 45.56774717-72.10578174 45.56774716-26.40858075 0-39.61287111-17.6057205-39.61287109-52.81716149 0-24.98458864 5.17815309-49.83972347 15.79336691-74.95376592h48.674639c-11.00357531 31.32782617-16.6995437 51.26371555-16.69954369 60.0665758 0 9.32067555 2.84798419 13.98101333 8.54395258 13.98101334 4.78979161 0 13.07483653-5.82542222 24.85513482-17.6057205l115.47281381-122.59277432-22.13660442-70.29342815c-4.40143013-14.36937482-8.15559111-25.11404247-10.74466765-31.84564147-2.71853037-6.73159902-6.08432987-12.16865975-10.22685235-16.44063606-4.01306864-4.14252247-9.19122173-6.34323753-15.14609779-6.34323753-17.21735902 0-31.58673383 22.26605827-43.23757827 66.79817481h-41.42522468c9.70903703-31.58673383 20.58315852-57.73640691 33.14017974-78.7079269 12.42756741-20.84206617 26.53803457-36.89434075 42.20194766-48.02736988 15.66391309-11.00357531 32.3634568-16.6995437 50.09863111-16.69954372 23.43114272 0 42.33140148 8.41449876 56.57132247 25.11404249 14.23992098 16.6995437 25.89076543 39.74232494 34.95253333 69.1283437l7.24941433 23.04278123 69.38725135-74.95376592c27.05584987-28.22093431 51.39316939-42.33140148 73.01195851-42.3314015 21.35988148 0 35.08198717 6.86105283 41.16631705 20.71261236 6.08432987 13.98101333 9.19122173 27.70311902 9.19122172 41.16631703z" p-id="2065"></path></svg>