<?xml version="1.0" standalone="no"?><!DOCTYPE svg PUBLIC "-//W3C//DTD SVG 1.1//EN" "http://www.w3.org/Graphics/SVG/1.1/DTD/svg11.dtd"><svg t="1558494510051" class="icon" style="" viewBox="0 0 1024 1024" version="1.1" xmlns="http://www.w3.org/2000/svg" p-id="1222" xmlns:xlink="http://www.w3.org/1999/xlink" width="200" height="200"><defs><style type="text/css"></style></defs><path d="M763.661 992.553H260.285c-88.434-0.107-160.08-71.752-160.187-160.24V534.877c0.107-88.421 71.752-160.093 160.187-160.2h503.484c88.38 0.107 160.079 71.779 160.133 160.2v297.436c-0.107 88.488-71.806 160.132-160.241 160.24zM271.967 432.635c-60.284 0.026-109.125 48.869-109.152 109.139v283.694c0 60.204 48.922 109.18 109.152 109.18h480.145c60.097 0 109.019-48.976 109.019-109.18V541.774c0-60.244-48.814-109.059-109.019-109.139H271.967z" p-id="1223"></path><path d="M763.715 325.969v-42.854c0-142.516-110.463-250.278-257.429-251.668h-2.834c-149.439 1.39-266.051 111.425-266.051 251.668v114.553c0.054 12.618 10.266 22.83 22.884 22.777h0.054c12.618-0.027 38.817-10.266 38.817-22.884V283.115c0-115.034 97.737-190.208 205.687-190.208 111.412 0 194.605 73.276 194.605 190.208v45.768c0 0.401 0.107 0.775 0.161 1.149 0.909 17.698 16.04 31.332 33.737 30.423 17.163-0.882 30.583-15.078 30.529-32.294 0-0.748-0.106-1.444-0.16-2.192z m-114.74 317.927c-0.106-75.815-61.54-137.236-137.315-137.316-75.79 0.08-137.223 61.5-137.33 137.316 0.08 66.62 47.585 122.118 110.516 134.576v61.434c0 0.374-0.107 0.748-0.107 1.122 0 0.375 0.107 0.749 0.107 1.123v0.588h0.054c0.909 14.009 12.458 25.13 26.707 25.13 14.235 0 25.784-11.121 26.693-25.13h0.054v-0.534c0-0.428 0.106-0.802 0.106-1.177 0-0.374-0.106-0.748-0.106-1.176v-61.326c62.982-12.512 110.514-68.01 110.621-134.63z m-221.66 0c0-46.462 37.854-84.317 84.344-84.317 46.423 0 84.33 37.908 84.33 84.371s-37.854 84.317-84.33 84.317c-46.543 0-84.344-37.909-84.344-84.371z" p-id="1224"></path></svg>