<?xml version="1.0" standalone="no"?><!DOCTYPE svg PUBLIC "-//W3C//DTD SVG 1.1//EN" "http://www.w3.org/Graphics/SVG/1.1/DTD/svg11.dtd"><svg t="1558495210168" class="icon" style="" viewBox="0 0 1024 1024" version="1.1" xmlns="http://www.w3.org/2000/svg" p-id="2796" xmlns:xlink="http://www.w3.org/1999/xlink" width="200" height="200"><defs><style type="text/css"></style></defs><path d="M927.288889 341.333333l39.822222-39.822222-147.911111-147.911111-34.133333-39.822222-426.666667 426.666666C329.955556 523.377778 295.822222 512 256 512 147.911111 512 56.888889 603.022222 56.888889 711.111111S147.911111 910.222222 256 910.222222 455.111111 819.2 455.111111 711.111111c0-51.2-22.755556-96.711111-51.2-136.533333l210.488889-210.488889L756.622222 512l39.822222-39.822222-147.911111-147.911111 130.844445-130.844445L927.288889 341.333333zM256 853.333333C176.355556 853.333333 113.777778 790.755556 113.777778 711.111111S176.355556 568.888889 256 568.888889 398.222222 631.466667 398.222222 711.111111 335.644444 853.333333 256 853.333333z" p-id="2797"></path></svg>