<?xml version="1.0" standalone="no"?><!DOCTYPE svg PUBLIC "-//W3C//DTD SVG 1.1//EN" "http://www.w3.org/Graphics/SVG/1.1/DTD/svg11.dtd"><svg t="1558494516753" class="icon" style="" viewBox="0 0 1024 1024" version="1.1" xmlns="http://www.w3.org/2000/svg" p-id="1463" xmlns:xlink="http://www.w3.org/1999/xlink" width="200" height="200"><defs><style type="text/css"></style></defs><path d="M97.28 897.024h829.44v57.344H97.28v-57.344z m827.392-170.496c0-48.128-38.912-87.552-87.552-87.552h-168.448l-57.344-258.048c44.032-32.256 69.12-80.896 69.12-135.68 0-92.16-75.776-165.888-165.888-165.888S348.672 155.136 348.672 244.736c0 52.736 25.6 103.424 69.12 135.68l-57.344 258.048H189.44c-48.64 0-87.552 39.424-87.552 87.552v117.248h822.784v-116.736z m-57.856 59.904H159.744v-59.904c0-16.384 13.824-30.208 29.696-30.208h214.016l75.776-345.6-18.432-9.216c-34.816-18.432-57.344-55.296-57.344-96.768 0-59.904 48.128-110.592 110.592-110.592 61.952 0 110.592 48.128 110.592 110.592 0 39.424-23.04 75.776-57.344 96.768l-18.432 9.216L624.64 696.32h214.528c15.872 0 29.696 13.824 29.696 30.208v59.904h-2.048z" fill="#707070" p-id="1464"></path></svg>