<?xml version="1.0" standalone="no"?><!DOCTYPE svg PUBLIC "-//W3C//DTD SVG 1.1//EN" "http://www.w3.org/Graphics/SVG/1.1/DTD/svg11.dtd"><svg t="1558494539088" class="icon" style="" viewBox="0 0 1024 1024" version="1.1" xmlns="http://www.w3.org/2000/svg" p-id="2184" xmlns:xlink="http://www.w3.org/1999/xlink" width="200" height="200"><defs><style type="text/css"></style></defs><path d="M791.948929 953.205657H229.891879c-51.911111 0-94.134303-42.228364-94.134303-94.134303V165.250586c0-51.911111 42.228364-94.134303 94.134303-94.134303h114.619475v65.152H229.891879c-15.983192 0-28.983596 13.004283-28.983596 28.984889v693.819474c0 15.984485 13.00299 28.984889 28.983596 28.984889h562.05705c15.984485 0 28.984889-13.004283 28.984889-28.984889V165.253172c0-15.984485-13.004283-28.984889-28.984889-28.984889h-103.783434V71.116283h103.783434c51.912404 0 94.134303 42.228364 94.134303 94.134303v693.820768c0 51.904646-42.227071 94.134303-94.134303 94.134303z" p-id="2185"></path><path d="M411.283394 71.111111h210.107475v65.152H411.283394V71.111111zM748.320323 276.604121l0.148687 65.152-467.440485 1.074424-0.148687-65.153292 467.440485-1.073132zM749.950707 479.032889l0.148687 65.152-467.440485 1.073131-0.148687-65.152 467.440485-1.073131zM748.320323 688.963232l0.148687 65.152-467.440485 1.073132-0.148687-65.152 467.440485-1.073132z" p-id="2186"></path></svg>