<?xml version="1.0" standalone="no"?><!DOCTYPE svg PUBLIC "-//W3C//DTD SVG 1.1//EN" "http://www.w3.org/Graphics/SVG/1.1/DTD/svg11.dtd"><svg t="1558494526737" class="icon" style="" viewBox="0 0 1024 1024" version="1.1" xmlns="http://www.w3.org/2000/svg" p-id="1703" xmlns:xlink="http://www.w3.org/1999/xlink" width="200" height="200"><defs><style type="text/css"></style></defs><path d="M688.64 358.912c-11.264 0-21.504 4.096-29.184 11.776l-181.76 182.784L384 459.776c-8.192-7.168-18.432-11.776-29.696-11.776-11.264 0-21.504 4.096-29.184 12.288-15.36 16.384-15.36 43.008 0.512 58.368 74.24 73.216 118.272 115.2 131.584 125.952l-0.512 0.512 4.096 2.048c5.632 3.584 12.8 4.608 18.944 4.608 10.24 0 20.48-4.096 28.16-12.288l210.432-210.432c15.36-16.384 15.36-43.008-0.512-58.368-7.68-7.168-18.432-11.776-29.184-11.776z m185.344-213.504L544.256 30.72c-20.992-6.656-43.52-6.656-65.024 0L150.528 145.408c-34.304 11.264-56.832 43.008-56.832 78.848v250.88c0 148.48 71.168 290.304 189.952 378.368l180.224 128c14.336 11.264 30.208 16.384 48.64 16.384 17.408 0 34.304-5.632 48.128-16.384l180.736-128c118.272-87.552 188.928-228.864 188.928-377.344V224.768c0-36.864-22.528-68.096-56.32-79.36z m-18.432 118.272v208.384c0 122.88-58.368 240.128-156.16 312.32L542.72 896c-8.704 6.656-19.968 9.728-30.72 9.728s-22.016-3.584-30.72-9.728l-156.672-111.616c-98.304-72.704-156.672-189.44-156.672-312.32V253.44c0-22.528 14.848-43.008 35.84-50.176l284.672-99.84c6.656-2.048 14.336-3.072 22.016-3.072s15.36 1.024 22.528 3.072l285.184 99.84c21.504 6.656 35.328 26.624 35.328 50.176v10.24h1.024z m-10.24 5.632" p-id="1704"></path></svg>