<?xml version="1.0" standalone="no"?><!DOCTYPE svg PUBLIC "-//W3C//DTD SVG 1.1//EN" "http://www.w3.org/Graphics/SVG/1.1/DTD/svg11.dtd"><svg t="1558494513571" class="icon" style="" viewBox="0 0 1024 1024" version="1.1" xmlns="http://www.w3.org/2000/svg" p-id="1343" xmlns:xlink="http://www.w3.org/1999/xlink" width="200" height="200"><defs><style type="text/css"></style></defs><path d="M331.294118 180.705882a180.705882 180.705882 0 1 1 361.411764 0h180.705883a60.235294 60.235294 0 0 1 60.235294 60.235294v722.82353a60.235294 60.235294 0 0 1-60.235294 60.235294H150.588235a60.235294 60.235294 0 0 1-60.235294-60.235294V240.941176a60.235294 60.235294 0 0 1 60.235294-60.235294h180.705883z m60.235294 0a60.235294 60.235294 0 0 1-60.235294 60.235294H150.588235v722.82353h722.82353V240.941176h-180.705883a60.235294 60.235294 0 0 1-60.235294-60.235294 120.470588 120.470588 0 1 0-240.941176 0z m120.470588 60.235294a60.235294 60.235294 0 1 1 0-120.470588 60.235294 60.235294 0 0 1 0 120.470588zM301.176471 361.411765h421.647058a30.117647 30.117647 0 1 1 0 60.235294h-421.647058a30.117647 30.117647 0 0 1 0-60.235294z m0 180.705882h421.647058a30.117647 30.117647 0 1 1 0 60.235294h-421.647058a30.117647 30.117647 0 0 1 0-60.235294z m0 180.705882h240.941176a30.117647 30.117647 0 1 1 0 60.235295h-240.941176a30.117647 30.117647 0 1 1 0-60.235295z" p-id="1344"></path></svg>