<?xml version="1.0" standalone="no"?><!DOCTYPE svg PUBLIC "-//W3C//DTD SVG 1.1//EN" "http://www.w3.org/Graphics/SVG/1.1/DTD/svg11.dtd"><svg t="1558494506603" class="icon" style="" viewBox="0 0 1024 1024" version="1.1" xmlns="http://www.w3.org/2000/svg" p-id="1102" xmlns:xlink="http://www.w3.org/1999/xlink" width="200" height="200"><defs><style type="text/css"></style></defs><path d="M1024 683.405235a33.103163 33.103163 0 0 0-66.206326 0v204.503984a69.148829 69.148829 0 0 1-69.884455 69.884455H683.405235a33.103163 33.103163 0 1 0 0 66.206326h204.503984a136.090781 136.090781 0 0 0 136.090781-136.090781zM33.11199 650.302072a32.367537 32.367537 0 0 0-33.103162 33.103163v204.503984a136.090781 136.090781 0 0 0 136.09078 136.090781h204.503985a33.103163 33.103163 0 1 0 0-66.206326H136.099608a69.148829 69.148829 0 0 1-69.884455-69.884455V683.405235a32.367537 32.367537 0 0 0-33.103163-33.103163z m956.313595-276.595317a32.367537 32.367537 0 0 0 33.103163-33.103163V136.099608A136.090781 136.090781 0 0 0 887.909219 0.008828H683.405235a32.367537 32.367537 0 0 0-33.103163 33.103162 32.367537 32.367537 0 0 0 33.103163 33.103163h204.503984a69.148829 69.148829 0 0 1 69.884455 73.562585v200.825854a32.367537 32.367537 0 0 0 33.103163 33.103163z m-203.768358 105.194496H238.3516a33.103163 33.103163 0 0 0 0 66.206326h547.305627a33.103163 33.103163 0 0 0 0-66.206326zM0.008828 340.603592a32.367537 32.367537 0 0 0 33.103162 33.103163 32.367537 32.367537 0 0 0 33.103163-33.103163V136.099608a69.148829 69.148829 0 0 1 73.562585-69.884455h200.825855a32.367537 32.367537 0 0 0 33.103162-33.103163 32.367537 32.367537 0 0 0-33.103162-33.103162H136.099608A136.090781 136.090781 0 0 0 0.008828 136.099608z" p-id="1103"></path></svg>