<?xml version="1.0" standalone="no"?><!DOCTYPE svg PUBLIC "-//W3C//DTD SVG 1.1//EN" "http://www.w3.org/Graphics/SVG/1.1/DTD/svg11.dtd"><svg t="1558494529678" class="icon" style="" viewBox="0 0 1024 1024" version="1.1" xmlns="http://www.w3.org/2000/svg" p-id="1823" xmlns:xlink="http://www.w3.org/1999/xlink" width="200" height="200"><defs><style type="text/css"></style></defs><path d="M950.16 507.44c-4.64-39.6-57.44-108.16-138.24-166.4L768.16 384.8c73.2 51.04 119.52 108.88 122 128.08-4.88 36.96-169.12 215.2-377.2 215.84h-1.04c-27.2-0.08-53.6-3.2-79.04-8.64l-49.6 49.52c40.96 12.08 84.24 19.36 128.72 19.44h0.24c231.04-0.32 428.48-192.16 437.76-270.56 0.32-1.68 0.48-3.44 0.48-5.28v-0.64c0.08-1.76-0.08-3.52-0.32-5.12zM774.64 250.32c-5.92-5.92-13.6-8.8-21.36-8.8-7.68 0-15.44 2.96-21.28 8.8L249.52 732.8c-11.76 11.76-11.76 30.88 0 42.64 5.92 5.92 13.6 8.88 21.28 8.88 7.76 0 15.44-2.96 21.36-8.88l482.56-482.56c11.76-11.76 11.76-30.8-0.08-42.56zM134.08 512.96c4.88-36.96 168.88-215.04 376.8-215.84h1.44c27.2 0 53.6 3.2 79.04 8.64l49.6-49.6C600 244.08 556.8 236.8 512.32 236.72c-0.48 0-1.04 0-1.52 0.08-230.8 0.88-427.84 192.56-436.8 270.72-0.32 1.68-0.4 3.36-0.4 5.04v0.64c0 1.68 0.16 3.36 0.4 5.04 4.48 39.52 57.36 108.24 138.32 166.48l43.76-43.76c-73.28-50.96-119.6-108.88-122-128z m378 149.04c82.24 0 149.12-66.88 149.12-149.12 0-6.72-0.64-13.28-1.44-19.68L492.32 660.56c6.48 0.88 13.04 1.44 19.76 1.44zM362.96 512.88c0 6.72 0.64 13.28 1.44 19.68l167.36-167.36c-6.48-0.88-13.04-1.44-19.68-1.44-82.24 0-149.12 66.88-149.12 149.12z" p-id="1824"></path></svg>